<svg id="SPEAKER_PHONE" data-name="SPEAKER PHONE" xmlns="http://www.w3.org/2000/svg" width="28.186" height="28.185" viewBox="0 0 28.186 28.185">
  <defs>
    <style>
      .cls-1 {
        fill: none;
      }

      .cls-2 {
        fill: #2680eb;
      }
    </style>
  </defs>
  <path id="Path_192" data-name="Path 192" class="cls-1" d="M0,0H28.185V28.185H0ZM0,0H28.185V28.185H0Z"/>
  <path id="Path_193" data-name="Path 193" class="cls-2" d="M7.48,8.129,9.159,9.808a5.926,5.926,0,0,1,8.385,0l1.679-1.679a8.307,8.307,0,0,0-11.744,0ZM13.352,1a12.875,12.875,0,0,0-9.1,3.77L5.906,6.426a10.547,10.547,0,0,1,14.891,0L22.453,4.77A12.875,12.875,0,0,0,13.352,1ZM16.71,11.581l-6.717-.012a1.338,1.338,0,0,0-1.339,1.339v11.4A1.338,1.338,0,0,0,9.993,25.65H16.7a1.338,1.338,0,0,0,1.339-1.339v-11.4a1.311,1.311,0,0,0-1.327-1.327Zm.164,11.732H9.828v-9.4h7.046Z" transform="translate(0.741 0.174)"/>
</svg>
