<svg xmlns="http://www.w3.org/2000/svg" width="29.609" height="17.477" viewBox="0 0 29.609 17.477">
  <defs>
    <style>
      .cls-1 {
        fill: #707070;
      }
    </style>
  </defs>
  <g id="earthquake" transform="translate(0 0)">
    <path id="Union_4" data-name="Union 4" class="cls-1" d="M.578,17.477A.58.58,0,0,1,0,16.9V.578A.58.58,0,0,1,.578,0H11.8a.035.035,0,0,0,.023.006c.012,0,.023.006.035.006s.012.006.017.006.023.006.035.012.012.006.017.006a.081.081,0,0,1,.035.012c.006.006.012.006.017.012s.017.012.029.017.017.012.023.017A.044.044,0,0,1,12.052.1a.1.1,0,0,0,.029.023c.006,0,.012.006.017.012l.023.023.017.017c.012.006.017.017.023.023a.079.079,0,0,0,.017.023A.079.079,0,0,0,12.2.249c.006.012.012.017.017.029l.006.006,2.7,4.285a.583.583,0,0,1-.052.688L12.96,7.478,15.2,10.861,14.73,8.2a.583.583,0,0,1,.11-.457l2.533-3.3-1.5-3.62V.81a.4.4,0,0,1-.017-.046c0-.006-.006-.012-.006-.017s-.006-.023-.006-.035S15.84.688,15.84.677V.6a.2.2,0,0,0,.006-.058.16.16,0,0,1,.006-.052.812.812,0,0,1,.035-.11c.006-.012.012-.029.017-.04s.006-.006.006-.012.012-.017.017-.029.006-.012.012-.017.006-.012.012-.017a.126.126,0,0,1,.017-.029c.006-.006.012-.006.012-.012S16,.2,16.008.185l.087-.069c.029-.017.064-.035.1-.052H16.2a.391.391,0,0,1,.046-.017c.012,0,.017-.006.023-.006s.023-.006.035-.006.023-.006.035-.006H29.031a.581.581,0,0,1,.578.584V16.9a.58.58,0,0,1-.578.578Z"/>
    <g id="Group_119" data-name="Group 119" transform="translate(3.408 13.091)">
      <g id="Group_118" data-name="Group 118">
        <path id="Path_151" data-name="Path 151" class="cls-1" d="M55.591,425.7H49.6a.7.7,0,0,0,0,1.394h5.994a.7.7,0,0,0,0-1.394Z" transform="translate(-48.9 -425.7)"/>
      </g>
    </g>
    <g id="Group_121" data-name="Group 121" transform="translate(9.576 13.09)">
      <g id="Group_120" data-name="Group 120">
        <path id="Path_152" data-name="Path 152" class="cls-1" d="M167.6,425.7a.7.7,0,0,0,0,1.4A.7.7,0,0,0,167.6,425.7Z" transform="translate(-166.925 -425.7)"/>
      </g>
    </g>
  </g>
</svg>
