<svg xmlns="http://www.w3.org/2000/svg" width="23.957" height="31.942" viewBox="0 0 23.957 31.942">
  <defs>
    <style>
      .cls-1 {
        fill: #707070;
      }
    </style>
  </defs>
  <g id="fire" transform="translate(0.001 0)">
    <g id="Group_111" data-name="Group 111" transform="translate(0 0)">
      <path id="Path_145" data-name="Path 145" class="cls-1" d="M87.888,18.7c-.366-4.764-2.584-7.749-4.541-10.383C81.536,5.879,79.971,3.773,79.971.667A.666.666,0,0,0,79.61.075a.659.659,0,0,0-.691.051,16.924,16.924,0,0,0-6.247,9.028,29.471,29.471,0,0,0-.684,6.749c-2.714-.58-3.329-4.639-3.335-4.683a.665.665,0,0,0-.949-.5c-.142.069-3.493,1.771-3.688,8.569-.014.226-.014.453-.014.68A11.992,11.992,0,0,0,75.978,31.941a.093.093,0,0,0,.027,0h.008A11.992,11.992,0,0,0,87.956,19.964C87.956,19.631,87.888,18.7,87.888,18.7ZM75.978,30.61a4.134,4.134,0,0,1-3.993-4.253c0-.08,0-.161.005-.259a5.394,5.394,0,0,1,.42-2.113,2.43,2.43,0,0,0,2.2,1.591.665.665,0,0,0,.665-.665,13.312,13.312,0,0,1,.255-3.027,6.435,6.435,0,0,1,1.347-2.551,8.574,8.574,0,0,0,1.372,2.517A7.582,7.582,0,0,1,79.954,26c.008.114.017.229.017.353A4.134,4.134,0,0,1,75.978,30.61Z" transform="translate(-64 0)"/>
    </g>
  </g>
</svg>
