<svg xmlns="http://www.w3.org/2000/svg" width="29.01" height="29.01" viewBox="0 0 29.01 29.01">
  <defs>
    <style>
      .cls-1 {
        fill: #707070;
      }
    </style>
  </defs>
  <g id="flood2" transform="translate(0 0)">
    <path id="Path_153" data-name="Path 153" class="cls-1" d="M3.626,22.472c.293.128.559.26.808.385a5.248,5.248,0,0,0,2.811.714,5.247,5.247,0,0,0,2.813-.715c.252-.126.523-.259.821-.389V16.319h7.252v6.156c.29.127.553.258.8.381a5.269,5.269,0,0,0,2.82.715,5.268,5.268,0,0,0,2.819-.715c.25-.125.519-.257.814-.386V14.506h3.625L25.382,10.88h0V3.627H21.757V7.255L14.5,0,0,14.5H3.626Z" transform="translate(0 -0.001)"/>
    <path id="Path_154" data-name="Path 154" class="cls-1" d="M24.573,405.627a5.268,5.268,0,0,1-2.819.715,5.269,5.269,0,0,1-2.82-.715,8.812,8.812,0,0,0-4.439-1.1,8.8,8.8,0,0,0-4.434,1.1,5.246,5.246,0,0,1-2.813.715,5.248,5.248,0,0,1-2.811-.714A8.8,8.8,0,0,0,0,404.529v3.626a5.248,5.248,0,0,1,2.811.714,8.8,8.8,0,0,0,4.434,1.1,8.8,8.8,0,0,0,4.434-1.1,5.246,5.246,0,0,1,2.813-.715,5.268,5.268,0,0,1,2.819.715,8.825,8.825,0,0,0,4.44,1.1,8.811,8.811,0,0,0,4.439-1.1,5.269,5.269,0,0,1,2.82-.715v-3.626A8.825,8.825,0,0,0,24.573,405.627Z" transform="translate(-0.003 -380.959)"/>
  </g>
</svg>
