<svg xmlns="http://www.w3.org/2000/svg" width="148.403" height="39.633" viewBox="0 0 148.403 39.633">
  <defs>
    <style>
      .cls-1 {
        fill: #fff;
      }
    </style>
  </defs>
  <g id="文化部小房子" transform="translate(-45.7 -1.1)">
    <path id="Path_316" data-name="Path 316" class="cls-1" d="M98.715,27.607c0,.56-.023,1.119,0,1.655.023.513-.023.933-.676.979a.588.588,0,0,0-.35.42c-.023,2.7-.023,5.385-.023,8.09.117.023.21.047.3.07a3.267,3.267,0,0,0,.233-.909c.023-1.749,0-3.5,0-5.246,0-.3.023-.629.047-.979.4-.047.746-.07,1.166-.117V1.1h3.38c.583,9.792,1.142,19.56,1.725,29.562,1.212-.793,2.238-1.469,3.287-2.145a4.924,4.924,0,0,1,.723-.49c1.585-.723,2.448-1.842,2.052-3.684a.853.853,0,0,1,.4-.723c.956-.187,1.236-.839,1.212-1.818.513.07.956.163,1.469.233v2.4a9.578,9.578,0,0,0,.979-.326,2.388,2.388,0,0,1,2.7-.023c.187.14.56.07.816,0,1.236-.35,2.448-.7,3.66-1.119a5.882,5.882,0,0,0,1.072-.676,1.894,1.894,0,0,1,.676-.28c.466-.047.933-.023,1.469-.023.163-3.38.326-6.714.513-10.071.56-.093,1.026-.163,1.609-.256.163,3.007.35,5.922.536,9.092a24.791,24.791,0,0,0,2.261-1.7,1.334,1.334,0,0,1,2-.117c1.1.816,2.331,1.445,3.427,2.238A4.721,4.721,0,0,0,139.28,22.2c-.466,1.632.769,1.958,1.655,2.541,1.865,1.212,3.707,2.425,5.6,3.544a7.9,7.9,0,0,0,2.1.676c.56.163,1.119.256,1.679.373v.326c1.865-1.026,3.707-2.028,5.572-3.054q6.819-3.742,13.592-7.507a1.212,1.212,0,0,1,1.282-.023q11.086,5.35,22.194,10.654c1.259.606,1.282.606,1.026,2-.023.163-.047.35-.093.676h-1c-1.212,0-1.212,0-1.212,1.236v6.2c0,.28-.023.56-.047.886H151.66v-8.16c-1.445-.42-1.609-.3-1.609,1.072V40.71H48.474V30.522c-.886.047-1.632.093-2.518.14-.093-.769-.163-1.515-.256-2.308.956-.42,1.935-.769,2.868-1.236q6.295-3.287,12.566-6.668c4.1-2.215,8.16-4.476,12.216-6.761a1.048,1.048,0,0,1,1.259.047c7.157,4.36,14.314,8.743,21.5,13.056A9.742,9.742,0,0,0,98.715,27.607Zm31.776,8.859H132.8c0-1.119.047-2.168,0-3.194-.047-.979-.163-1.935-.3-2.891a.853.853,0,0,0-1.306-.653,1.741,1.741,0,0,0-.653,1.142C130.445,32.713,130.491,34.555,130.491,36.467Zm-.536.047c-.14-2.028-.256-3.963-.4-5.875-.047-.606-.326-1-.956-1.026-.653-.023-.956.443-1,1-.093,1.306-.093,2.611-.117,3.917-.023.653,0,1.306,0,2C128.3,36.513,129,36.513,129.955,36.513Zm5.525-.023V30.848c0-.653-.187-1.189-.933-1.259-.769-.07-1.049.513-1.072,1.119-.047,1.912-.023,3.823-.023,5.782Zm-17,0c0-1.679.047-3.241-.023-4.8-.023-.606-.163-1.282-.979-1.329-.723-.047-1,.536-1.026,1.072-.07,1.679-.023,3.357-.023,5.059Zm24.572,0c0-1.749.023-3.4-.023-5.059-.023-.583-.3-1.212-.979-1.049a1.466,1.466,0,0,0-.933,1.026c-.093,1.679-.047,3.357-.047,5.082Zm-21.915,0c0-1.725.023-3.4-.023-5.082-.023-.536-.28-1.142-.933-1.026-.373.07-.933.56-.933.909-.093,1.725-.047,3.45-.047,5.2Zm12.4-10.048c-.07-1.049-.117-2.052-1.049-2.681a1.683,1.683,0,0,0-2.052-.117c-.933.676-.956,1.7-.933,2.8ZM145.808,36.49V31.524a.885.885,0,0,0-.21-.653,1.6,1.6,0,0,0-.909-.49.969.969,0,0,0-.629.676c-.047,1.8-.023,3.59-.023,5.409C144.643,36.49,145.155,36.49,145.808,36.49ZM74.166,18.282a1.6,1.6,0,0,0-1.585,1.7A1.678,1.678,0,0,0,74.166,21.8a1.732,1.732,0,0,0,1.7-1.725A1.691,1.691,0,0,0,74.166,18.282Zm98.243,6.131a1.528,1.528,0,1,0-3.054.117,1.528,1.528,0,0,0,3.054-.117Z"/>
  </g>
</svg>
