<svg xmlns="http://www.w3.org/2000/svg" width="81.152" height="79.245" viewBox="0 0 81.152 79.245">
  <defs>
    <style>
      .cls-1 {
        fill: #fff;
      }
    </style>
  </defs>
  <g id="文化部小花" transform="translate(0.024 -3.225)">
    <path id="Path_317" data-name="Path 317" class="cls-1" d="M12.918,67.777c1.093-1.222,2.187-2.444,3.28-3.6a2.765,2.765,0,0,0,.579-.643,5.506,5.506,0,0,1,3.216-2.38,4.742,4.742,0,0,0,3.023-3.216,2.578,2.578,0,0,1,1.8-1.736,8.763,8.763,0,0,0,5.338-4.695,9.213,9.213,0,0,1,2.958-3.73,8.579,8.579,0,0,0,4.373,2.637,38.588,38.588,0,0,0,6.11.643c1.543.064,1.994-.965,1.093-2.251a13.251,13.251,0,0,0-4.18-3.6,21.29,21.29,0,0,0-7.524-3.023,9.445,9.445,0,0,1-6.238-4.373,14.221,14.221,0,0,0-2.508-2.7c-1.543-1.351-3.151-2.7-4.759-3.987a4.755,4.755,0,0,0-1.415-.643c-.064.064-.129.129-.193.129.064.322.064.707.129,1.093a21.452,21.452,0,0,0,2.765,5.4c.965,1.415,1.994,2.765,2.958,4.18a.931.931,0,0,1,.064.707c-1.093,1.479-2.122,3.023-3.28,4.373a9.063,9.063,0,0,0-2.315,5.531,4,4,0,0,1-1.158,2.765,6.764,6.764,0,0,0-1.286,1.736,13.8,13.8,0,0,0-.707,2.315,17.238,17.238,0,0,1-.322,1.929,23.8,23.8,0,0,1-3.666,5.917,23.2,23.2,0,0,1-6.367-5.6A24.15,24.15,0,0,1-.009,45.654a25.941,25.941,0,0,1,1.672-7.267c1.865-5.6,3.666-11.254,5.466-16.85a4.1,4.1,0,0,0,.129-.45c.514.707.965,1.351,1.479,2.058a26.557,26.557,0,0,1,1.608,2.444,4.443,4.443,0,0,0,2.7,1.865,15.314,15.314,0,0,0,1.672.322c3.28.322,5.981,2.058,8.425,4.052.772.579,1.479,1.286,2.251,1.994-.064-.193-.064-.386-.129-.514-1.029-3.859-3.408-6.753-6.174-9.261a46.041,46.041,0,0,0-9.84-6.56,5.949,5.949,0,0,1-.643-.322c.386-.9.836-1.736,1.286-2.765.965,1.672,2.508,2.444,3.923,3.408a32.215,32.215,0,0,1,9.84,9.711,22.2,22.2,0,0,1,2.894,6.56,23.868,23.868,0,0,0-.193-15.692,25.838,25.838,0,0,1,3.087,15.949c.129-.257.322-.514.386-.707a43.95,43.95,0,0,0,4.052-12.734,25.593,25.593,0,0,0-.707-10.8,8.261,8.261,0,0,0-6.3-6.11,7.251,7.251,0,0,1-1.543-.514c.9-.064,1.8-.193,2.7-.193q12.444-.1,24.888,0A19.884,19.884,0,0,1,64.174,7.068a22.25,22.25,0,0,1,9,11.9c2.251,7.139,4.63,14.277,6.946,21.416a21.375,21.375,0,0,1,.129,12.541A20.949,20.949,0,0,1,73.5,63.854c-2.315,1.865-4.759,3.537-7.2,5.274-4.245,3.087-8.489,6.11-12.734,9.261a20.871,20.871,0,0,1-11.9,4.052,21.625,21.625,0,0,1-15.049-4.695c-2.058-1.672-4.245-3.087-6.431-4.695-1.093-.772-2.187-1.543-3.408-2.508h.965c3.473-.064,6.946-.064,10.354-.129.193,0,.386-.064.514.064a2.55,2.55,0,0,0,2.7-.129,28,28,0,0,0,2.765-2.058c.386-.322.386-.707-.129-.836a9.974,9.974,0,0,0-4.309-.707A1.779,1.779,0,0,0,27.9,68.1a.712.712,0,0,1-.579.45,27.917,27.917,0,0,1-3.344.45c-2.894.064-5.788,0-8.746,0v-.193c.514-.193,1.029-.322,1.608-.514,1.543-.514,3.151-1.029,4.695-1.479a1.878,1.878,0,0,1,.579-.129,2.652,2.652,0,0,0,2.444-.836,31.34,31.34,0,0,0,2.122-2.765c.322-.45.129-.836-.386-.836a10.355,10.355,0,0,0-4.437.643,1.687,1.687,0,0,0-1.093,1.736.98.98,0,0,1-.386.643,14.056,14.056,0,0,1-2.572,1.351c-1.222.514-2.444.836-3.666,1.222C13.368,68.163,13.368,68.1,12.918,67.777ZM50.8,15.107a2.284,2.284,0,0,0-.257.579A79.786,79.786,0,0,1,42.63,26.3,71.582,71.582,0,0,0,33.819,38.13c-.129.193-.193.386-.386.707,1.093-.836,2.058-1.543,3.023-2.251,7.653-5.209,15.885-8.232,25.339-6.753.193,0,.514-.193.514-.322a6.9,6.9,0,0,0,0-1.994,11.137,11.137,0,0,0-2.508-4.5,54.5,54.5,0,0,0-8.3-8.039c-.129-.129-.322-.129-.514-.193a10.678,10.678,0,0,0-1.351-1.029A73.173,73.173,0,0,0,37.678,8.547c-1.029-.386-1.994-.707-3.216-1.093.129.386.257.643.322.9s.193.514.257.772a20.908,20.908,0,0,1,.322,9.968A54.094,54.094,0,0,1,30.8,32.856c-.514,1.029-1.029,2.058-1.608,3.28a2.56,2.56,0,0,0,.579-.45c4.18-3.73,8.36-7.46,12.476-11.254A77.774,77.774,0,0,0,50.8,15.107ZM37.228,40.574a.236.236,0,0,0,.064.193c1.286.772,2.637,1.479,3.923,2.315a14.71,14.71,0,0,1,5.466,6.238,11.336,11.336,0,0,0,7.524,6.367,3.914,3.914,0,0,0,5.081-2.765c.257-1.029.643-1.351,1.672-1.158.707.129,1.415.257,2.122.45a6.469,6.469,0,0,0,5.016-.643,3.877,3.877,0,0,0,1.994-2.38c.193-.836.129-1.222-.579-1.672-2.251-1.351-4.437-2.83-6.817-3.987-6.3-3.087-12.862-4.759-19.937-3.987C40.829,39.8,39.028,40.252,37.228,40.574Zm-.257-.514c0,.064.064.129.064.193,12.541-4.373,23.8-1.543,34.342,5.788a5.385,5.385,0,0,0,.9-2.572,8.822,8.822,0,0,0-1.543-5.531,25.263,25.263,0,0,0-6.174-6.624,2.285,2.285,0,0,0-.579-.257,32.022,32.022,0,0,0-8.232.322,37.08,37.08,0,0,0-13.57,5.145C40.443,37.615,38.707,38.9,36.97,40.059Z"/>
  </g>
</svg>
