<svg xmlns="http://www.w3.org/2000/svg" width="127.241" height="36.444" viewBox="0 0 127.241 36.444">
  <defs>
    <style>
      .cls-1 {
        fill: #fff;
      }
    </style>
  </defs>
  <g id="文化部logo-橫-01" transform="translate(-146.756 0)">
    <path id="Path_293" data-name="Path 293" class="cls-1" d="M165.314,6.444c.519,0,1.041,0,1.56,0a1.033,1.033,0,0,1,.208.052c.391.085.781.189,1.178.253a1.853,1.853,0,0,1,1.429,1.313,5.151,5.151,0,0,0,.143.635,1.274,1.274,0,0,0,1.5,1,2.061,2.061,0,0,1,.867.131,11.03,11.03,0,0,1,2.448.867,4.681,4.681,0,0,0,1.612.62A7.546,7.546,0,0,1,178,11.9c.189.067.4.076.589.153a1.12,1.12,0,0,1,.388.278c.259.281.543.583.394,1.007A1.28,1.28,0,0,1,179,13.8a1.691,1.691,0,0,1-1.676.571c-.589-.174-1.163-.412-1.749-.6-.4-.128-.815-.217-1.221-.324-.3-.079-.6-.18-.9-.235-.98-.174-1.3.128-1.679,1a1.941,1.941,0,0,1-.455.562,9.073,9.073,0,0,0-.9.836,3.7,3.7,0,0,0-.375.916c-.064.165-.113.333-.18.5a1.289,1.289,0,0,0,.339,1.661c.085.082.226.1.317.183.47.391.958.763,1.389,1.194a4.09,4.09,0,0,0,1.523.852,4.845,4.845,0,0,1,1.145.574,2.281,2.281,0,0,0,1.807.421,1.893,1.893,0,0,1,1.429.372,2.229,2.229,0,0,0,.681.311c.485.153.992.244,1.471.421a5.259,5.259,0,0,0,1.548.263,9.421,9.421,0,0,1,1.007.147c.3.049.589.1.882.165a5.432,5.432,0,0,1,.891.22,3.666,3.666,0,0,0,1.566.049c.092,0,.223-.024.263-.085.168-.266.43-.177.647-.183.6-.012,1.206.049,1.807.027.488-.018.693.259.879.641s-.024.623-.214.864a2.968,2.968,0,0,1-1.346,1.056,3.64,3.64,0,0,0-1.056.678c-.208.159-.363.382-.565.549-.269.226-.574.409-.836.638a7.176,7.176,0,0,0-.589.629,1.663,1.663,0,0,1-.989.6,2.769,2.769,0,0,0-1.389.571.907.907,0,0,1-.968,0c-.324-.177-.681-.293-1-.479a6.506,6.506,0,0,1-.73-.577c-.293-.238-.6-.464-.873-.72s-.491-.525-.739-.788a1.693,1.693,0,0,0-.369-.382,10.711,10.711,0,0,1-2.051-1.789c-.238-.217-.366-.546-.586-.791a9.7,9.7,0,0,0-1.123-1.117,1.244,1.244,0,0,0-.717-.116,1.328,1.328,0,0,1-.885-.3,10.683,10.683,0,0,0-1.282-.861,1.242,1.242,0,0,0-.653-.15,1.608,1.608,0,0,1-1.23-.5,3.938,3.938,0,0,0-1.664-.925c-.223-.064-.446-.143-.675-.192a.885.885,0,0,0-.952.317.951.951,0,0,1-.754.357.416.416,0,0,0-.125.012c-.421.186-.849.357-1.255.571a3.2,3.2,0,0,1-.928.433,2.8,2.8,0,0,0-1.218.766c-.351.3-.623.72-1.163.769-.488.046-.971.171-1.456.256a.533.533,0,0,1-.22,0,1.31,1.31,0,0,0-1.276.455,1.889,1.889,0,0,1-.263.162c-.217.131-.433.266-.647.4-.018.012-.027.04-.046.043-.778.131-1.285.757-1.963,1.068-.253.116-.528.177-.785.29-.357.156-.7.339-1.056.5-.171.076-.369.089-.531.177a3.409,3.409,0,0,0-.9.568,2.83,2.83,0,0,1-1.346.7,1.777,1.777,0,0,1-.583.049,2.028,2.028,0,0,1-1.508-.757,1.116,1.116,0,0,1-.2-.635,5.057,5.057,0,0,0-.241-1.56,3.379,3.379,0,0,1-.1-1.358,1.687,1.687,0,0,0-.424-1.34,1.182,1.182,0,0,1-.2-.959.717.717,0,0,1,.94-.455,4.743,4.743,0,0,1,.919.488c.528.336,1.044.687,1.554,1.044a5.889,5.889,0,0,1,.482.433,1.228,1.228,0,0,0,.98.293c.165-.018.336.018.5-.006a4.192,4.192,0,0,0,.577-.143c.11-.034.208-.1.314-.134.29-.1.58-.208.876-.281.235-.058.488-.043.72-.107.275-.076.534-.211.806-.308.36-.131.733-.238,1.09-.379.241-.095.467-.232.7-.348a4.947,4.947,0,0,1,.5-.223,10.039,10.039,0,0,1,1.013-.327c.244-.058.5-.027.754-.067a3.267,3.267,0,0,0,1.532-.836,2.709,2.709,0,0,1,.44-.33c.464-.244.928-.488,1.41-.693a.986.986,0,0,0,.6-1.16.6.6,0,0,0-.287-.263c-.382-.211-.849-.269-1.148-.629a3.707,3.707,0,0,1-.421-.516c-.183-.324-.33-.669-.488-1.007-.287-.6-.672-.76-1.224-.424a2.925,2.925,0,0,1-1.682.44,1.6,1.6,0,0,0-.946.223,1.913,1.913,0,0,1-1.844-.342c-.29-.333-.577-.675-.833-1.035-.418-.589-.22-1.093.482-1.291a.164.164,0,0,0,.058-.021,1.411,1.411,0,0,1,1.392-.226,1.677,1.677,0,0,0,.7-.11c.516-.119,1.035-.226,1.542-.382.293-.092.553-.287.843-.4.256-.1.531-.153.8-.232.177-.052.351-.125.531-.162a4.224,4.224,0,0,1,.827-.119,2.835,2.835,0,0,0,1.151-.3c.311-.134.644-.217.955-.354a1.734,1.734,0,0,0,.989-1.093.985.985,0,0,0-.348-1.013c-.284-.2-.565-.412-.827-.644a.811.811,0,0,1,.04-1.184A1.718,1.718,0,0,1,165.314,6.444Zm.891,10.537c.482-.208.974-.388,1.429-.635a.721.721,0,0,0,.281-.525c.021-.418-.046-.839-.052-1.261a.663.663,0,0,0-.5-.669c-.293-.1-.586-.189-.885-.269a1.22,1.22,0,0,0-.928-.034,1.663,1.663,0,0,1-.678.183,2.576,2.576,0,0,0-1.49.6.534.534,0,0,0-.2.7,3.526,3.526,0,0,0,.528.73,1.671,1.671,0,0,0,.977.562,3.774,3.774,0,0,1,.748.3C165.671,16.767,165.912,16.865,166.205,16.981Z" transform="translate(0 -4.454)"/>
    <path id="Path_294" data-name="Path 294" class="cls-1" d="M511.99,34.494c-.037-.357-.3-.665-.027-1.026.058-.073-.009-.263-.052-.391a5.77,5.77,0,0,1-.351-1.029,2.2,2.2,0,0,1,.162-.928.792.792,0,0,0-.092-.763c-.085-.125-.235-.281.021-.4.015-.006.009-.058.009-.085,0-.449,0-.9-.015-1.349a7.876,7.876,0,0,1-.021-1.34c.052-.339-.263-.672.018-1,.024-.027-.082-.14-.079-.214,0-.131.009-.348.076-.375.327-.131.256-.357.186-.589a4.395,4.395,0,0,1-.217-.607,6.493,6.493,0,0,1-.021-.846c0-.266,0-.528,0-.736-.266-.345-.51-.662-.687-.9.043-.324.073-.562.107-.8a.5.5,0,0,1,.052-.192c.131-.186.278-.363.406-.549a.272.272,0,0,0,.031-.2c-.061-.256-.134-.507-.217-.806h-.186c.153-.3.259-.565-.006-.833-.055-.055-.037-.177-.064-.321.034.031.021.018.006.006-.345-.272-.784-.192-1.169-.324a.665.665,0,0,0-.244.009c-.421.034-.842.095-1.264.1a.7.7,0,0,1-.632-.745c0-.229-.1-.464.116-.653a2.072,2.072,0,0,1,.186-.18,2.7,2.7,0,0,1,1.282-.516,3.323,3.323,0,0,0,1.111-.327,5.029,5.029,0,0,1,.5-.085c.137-.043.253-.153.391-.2.183-.055.375-.073.565-.11a3.681,3.681,0,0,1,.473-.089c.055,0,.116.076.162.107a3.913,3.913,0,0,1,2.241-.287c.119.015.238.034.357.049a.468.468,0,0,0,.113.006c.757-.012,1.514-.009,2.271-.052a1.672,1.672,0,0,0,.592-.244c.314-.156.449-.119.638.171a.258.258,0,0,0,.2.1,1.773,1.773,0,0,1,1.331.168,3.048,3.048,0,0,1,.675.354.914.914,0,0,0,.632.085,1,1,0,0,1,.894.333.95.95,0,0,0,.223.125c.107-.22.244-.232.473-.134a10.426,10.426,0,0,0,1.169.348c.128.156.1.5.366.7.043.031-.028.211.015.311a1.162,1.162,0,0,1,.049.412,4.653,4.653,0,0,1-.3.7.213.213,0,0,1-.122.085c-.3.095-.549.287-.824.394a1.105,1.105,0,0,1-.882-.052,1,1,0,0,0-1.093.04c-.241.113-.464.259-.7.4-.122-.076-.269-.275-.33-.064-.278.082-.5.143-.717.214-.146.049-.29.116-.433.177-.034.015-.085.046-.089.073a1.3,1.3,0,0,0-.009.485.8.8,0,0,0,.287.372c.2.147.464.223.659.382.211.168.366.4.565.589a4.305,4.305,0,0,1,.565.476,12.557,12.557,0,0,1,.711,1.145c.027.046-.031.143-.046.2.028.217.055.443.079.669.009.079-.021.174.009.241a2.2,2.2,0,0,1-.137,1.578.19.19,0,0,1-.128.113,1.162,1.162,0,0,0-.714.479c-.04.046-.119.055-.183.079-.113.046-.269.043-.232.238a.166.166,0,0,1-.076.128,2.053,2.053,0,0,1-2.192.287,2.162,2.162,0,0,0-.766-.055,2.478,2.478,0,0,0-.424-.015c-.095.012-.284-.015-.2.211.024.064-.046.162-.064.22-.2-.055-.388-.171-.543-.137a2.05,2.05,0,0,0-1.313.6,1.307,1.307,0,0,0-.122.766c.009.232.128.412-.086.669a.832.832,0,0,0-.171.922c.061.125,0,.314-.006.473-.015.348-.031.7-.046,1.041,0,.009.009.021.006.031-.2.427.186.711.263,1.071a5.4,5.4,0,0,1,.058.632c.006.07.021.137.031.208.018.116.076.244.043.342a.438.438,0,0,0,.055.409.787.787,0,0,1,.067.589,3.11,3.11,0,0,1-1.035,1.377c-.18.134-.3.159-.47-.027a7.079,7.079,0,0,0-.785-.693c-.189-.147-.406-.253-.61-.382-.171-.107-.33-.223-.253-.47a.127.127,0,0,0-.049-.107C511.739,34.638,511.84,34.549,511.99,34.494Zm6.267-10.315a.386.386,0,0,1,.1-.027c.327-.015.62-.134.675-.473a1.437,1.437,0,0,0-.061-.87,1.387,1.387,0,0,0-.723-.543,7.394,7.394,0,0,1-1.459-.452,1.494,1.494,0,0,0-.543-.092,1.309,1.309,0,0,1-.824.2,1.238,1.238,0,0,0-1.029.36.613.613,0,0,0-.159.415,10.28,10.28,0,0,0,.125,1.142.863.863,0,0,0,.165.458,1.545,1.545,0,0,0,1.126.58c.437-.006.495-.015.482-.379.653.3,1.029-.183,1.459-.476a.348.348,0,0,0,.256.024C518.022,23.981,518.2,23.878,518.257,24.18Zm-.461-5.772c-.116-.134-.189-.2-.25-.287a1.379,1.379,0,0,0-1.645-.556,1.887,1.887,0,0,1-.519.089c-.256,0-.516-.079-.772-.061a.6.6,0,0,0-.549.775c.143.437.357.852.5,1.2A5.214,5.214,0,0,0,517.8,18.407Z" transform="translate(-250.762 -10.138)"/>
    <path id="Path_295" data-name="Path 295" class="cls-1" d="M363.258,25.5a4,4,0,0,0,1.728-.821.71.71,0,0,1,.211-.134c.36-.168.739-.308,1.081-.507.095-.055.089-.281.131-.427-.034-.015-.064-.034-.1-.049a5.233,5.233,0,0,0,.617-.473c.137-.14.311-.342.305-.51a1.621,1.621,0,0,1,.44-1,.536.536,0,0,0,.082-.375c-.052-.2.034-.266.192-.321a2.1,2.1,0,0,0,.4-.162,1.279,1.279,0,0,1,1.319.113c.162.15.372.314.415.5a2.605,2.605,0,0,1,.043,1.041,3.89,3.89,0,0,1-.4.788,1.85,1.85,0,0,0-.076.464.462.462,0,0,1-.122.073,1.922,1.922,0,0,0-1.068,1.151c-.064.134-.214.226-.317.345-.162.183-.406.351-.455.562-.116.491-.449.87-.586,1.343a.622.622,0,0,1-.168.217c-.211.217-.424.427-.638.638-.162.159-.327.314-.54.522l-.2-.015a1.018,1.018,0,0,1-.705.76c-.2.089-.348.314-.537.452-.256.189-.531.351-.791.537-.107.076-.174.2-.281.281a2.073,2.073,0,0,1-.711.452,1.264,1.264,0,0,0-.867.54c-.113.162-.22.327-.348.519a5.126,5.126,0,0,1-1.258-.778,1.57,1.57,0,0,0-.962-.54c-.22-.031-.409-.259-.62-.379a3.518,3.518,0,0,0-.491-.214c-.076-.031-.174-.018-.235-.064-.443-.33-.882-.662-1.31-1.01a1.313,1.313,0,0,0-.449-.2c-.809-.278-1.749-.223-2.4-.925-.027-.027-.07-.064-.1-.061-.644.031-1.242-.375-1.911-.2a.664.664,0,0,1-.372-.107c-.763-.363-1.526-.723-2.28-1.105a.943.943,0,0,1-.372-.336,13.159,13.159,0,0,1-.678-1.282c-.217-.488-.336-1.029-.6-1.49-.232-.409-.14-.879-.354-1.267a1.482,1.482,0,0,1-.107-1.429c.015-.037.037-.1.021-.116-.342-.324-.082-.714-.119-1.068-.052-.531-.082-1.065-.113-1.6a.559.559,0,0,1,.079-.226c.137-.324.293-.641.406-.974.04-.116-.031-.269-.043-.406a.559.559,0,0,1,.006-.226,4.367,4.367,0,0,1,.379-1.013,5.2,5.2,0,0,1,.528-.72c.156-.165.47-.174.708-.272a1.587,1.587,0,0,0,.281-.2c-.006-.034-.015-.067-.021-.1a7.064,7.064,0,0,1,1.041.385c.122.064.165.324.192.5a1.339,1.339,0,0,1-.064.43c-.082.433.153.678.583.58.269-.061.565-.058.629-.464a.456.456,0,0,1,.488-.357.267.267,0,0,0,.208-.095c.183-.266.427-.189.641-.1a2.8,2.8,0,0,1,.665.406.7.7,0,0,1,.238.406c.04.266.143.424.44.433,0,.333.214.495.461.65.6.385,1.2.791,1.792,1.19a.23.23,0,0,1,.082.15,1.189,1.189,0,0,1-1.047,1.273c-.052.006-.116,0-.147.031-.421.4-.836.238-1.306.064a6.7,6.7,0,0,0-1.807-.449,5.727,5.727,0,0,0-1.389-.034.86.86,0,0,0-.556.5,9.575,9.575,0,0,0-.256,1.566c-.009.095.122.2.183.305a1.172,1.172,0,0,1,.156.308c.079.372.14.751.208,1.126a1.3,1.3,0,0,1,.037.214.732.732,0,0,0,.836.8c.134,0,.272-.006.406-.006a1.111,1.111,0,0,1,.723.29,7.886,7.886,0,0,0,1.209.7,4.612,4.612,0,0,0,1.1.5c.379.082.766.07,1.056.394.04.046.162.009.241.027.2.052.4.125.611.171.3.067.611.113.916.18.177.04.351.1.525.147a3.09,3.09,0,0,0,.321.082,3.286,3.286,0,0,0,.488.061,4.158,4.158,0,0,0,.433-.04.923.923,0,0,1,.314-.015,1.832,1.832,0,0,0,2.128-.513.481.481,0,0,1,.3-.119,6.507,6.507,0,0,1,.809-.055A1.726,1.726,0,0,1,363.258,25.5Z" transform="translate(-138.847 -9.518)"/>
    <path id="Path_296" data-name="Path 296" class="cls-1" d="M439.289,25.178c-.2.012-.388.043-.583.037a2.17,2.17,0,0,0-1.074.305c-.067.037-.1.143-.14.223a.385.385,0,0,1-.482.241c-.4-.092-.815-.223-1.1.226-.186-.073-.351-.217-.412.128-.031.174-.543.25-.781.15-.192-.082-.369-.211-.565-.272-.1-.031-.235.046-.415.085a4.337,4.337,0,0,1-1.148-1.807c-.2-.546.058-.894.644-.922a.436.436,0,0,0,.168-.076,1.858,1.858,0,0,1,.983-.278,1.133,1.133,0,0,0,.965-.485.465.465,0,0,1,.626-.229,1.133,1.133,0,0,0,1.377-.522,3.7,3.7,0,0,1,.336-.363c.186.223.351.415.449.531.235-.024.385-.031.531-.055.1-.018.256-.04.287-.1.137-.311.406-.345.684-.424.391-.113.818-.2.958-.693.024-.089.223-.125.314-.174,0-.235.006-.446,0-.653-.012-.354-.4-.525-.727-.562-.388-.043-.8.137-1.2-.272-.351-.366-.266-.611-.217-1.016a.864.864,0,0,1,.482-.73,9.493,9.493,0,0,1,1.319-.525c.14-.049.336.049.47-.006.406-.162.788-.375,1.19-.543a1.132,1.132,0,0,1,.528-.092c.324.034.461-.217.675-.36a1.4,1.4,0,0,1,.534-.259,3.733,3.733,0,0,1,.885-.009.77.77,0,0,0,.723-.3.155.155,0,0,1,.076-.055c.1-.031.229-.1.29-.067.311.186.644-.275.946.049.058.061.192.052.3.061.33.037.656.067.986.095a.553.553,0,0,0,.122-.012.758.758,0,0,1,.751.186c.037.043.131.095.159.079.311-.2.69.095.992-.143.015-.012.043-.034.052-.031.382.241.815.052,1.215.143a1.4,1.4,0,0,0,.385-.021,6.978,6.978,0,0,1,.809.681c.281.311,0,1.02-.418,1.2-.147.061-.269.186-.415.253a6.456,6.456,0,0,1-.806.311,3.149,3.149,0,0,1-.54.064c0-.027-.009-.055-.012-.079a.242.242,0,0,1-.076.052c-.464.122-.424.461-.406.833a5.573,5.573,0,0,1-.119.858c-.061.549.107.711.653.739a1.793,1.793,0,0,1,.641.217c.223.11.366,0,.537-.11a1.223,1.223,0,0,1,.415-.128,1.544,1.544,0,0,1,.406-.052,2.939,2.939,0,0,1,.806.116c.162.061.281.256.4.406.034.043.012.137.009.208-.012.232-.024.464-.043.693s-.037.449-.055.672a1.243,1.243,0,0,1-1.154.3,1.645,1.645,0,0,1-.263-.11c-.064-.027-.143-.1-.183-.089-.15.067-.214,0-.33-.089-.082-.061-.269.012-.4.073-.018-.006-.046-.009-.055-.021-.293-.543-.72-.208-1.105-.18a4.2,4.2,0,0,1-1.029.107,4.5,4.5,0,0,0-.553-.125.714.714,0,0,0-.5.131c-.3.217-.626.4-.913.644-.082.073-.256.031-.385.064-.171.046-.406.061-.488.177-.174.244-.339.275-.565.128a.953.953,0,0,1-.864.238.323.323,0,0,0-.211.034c-.5.238-.989.5-1.5.714a1.654,1.654,0,0,1-.6.073,6.444,6.444,0,0,0-.727-.024,2.146,2.146,0,0,0-.678.217,1.009,1.009,0,0,1-.916-.067.421.421,0,0,0-.345-.015c-.107.043-.174.171-.266.253s-.2.143-.3.217A.163.163,0,0,0,439.289,25.178Zm6.633-5.186c.214-.418.775-.653.513-1.261a5.085,5.085,0,0,1-.186-.794,1.175,1.175,0,0,1-1.136.531.645.645,0,0,0-.482.128,5.3,5.3,0,0,0-.635.855.547.547,0,0,0,.446.818,1.162,1.162,0,0,0,.791-.211C445.434,19.915,445.657,19.778,445.922,19.992Z" transform="translate(-198.538 -10.547)"/>
    <path id="Path_297" data-name="Path 297" class="cls-1" d="M302.494,14.11c.241.159.467.379.342.742a9.363,9.363,0,0,0-1.09,1.013c-.159.2-.131.537-.2.809a1.007,1.007,0,0,1-.125.379,1.467,1.467,0,0,0-.275,1.145,1.341,1.341,0,0,1-.314,1.2.248.248,0,0,0-.07.2c.089.317-.116.556-.192.827a4.885,4.885,0,0,1-.522,1.041,1.956,1.956,0,0,0-.156.785c-.031.476-.034.955-.031,1.432a1.026,1.026,0,0,0,.085.418,2.422,2.422,0,0,1,.235,1.514,3.831,3.831,0,0,0-.064,1.276,1.247,1.247,0,0,1-.18,1.032c-.027.037,0,.122.012.18a2.584,2.584,0,0,1-.018,1.835.124.124,0,0,0-.012.092c.183.443-.143.711-.33,1.038a6.559,6.559,0,0,0-.443.965c-.031.079.058.208.113.375-.333.153-.7.324-1.016.47a3.462,3.462,0,0,0-.482-.412.254.254,0,0,1-.14-.354.52.52,0,0,0-.11-.546c-.2-.275-.363-.583-.559-.867a3.479,3.479,0,0,0-.342-.379c.354-.278.226-.644.174-1.029a14.235,14.235,0,0,1-.055-1.49,2.89,2.89,0,0,0-.006-.43,1.632,1.632,0,0,1,.076-.876,2.172,2.172,0,0,0-.037-.925,2.323,2.323,0,0,1,.128-1.31,2,2,0,0,0-.006-1.5,2.166,2.166,0,0,1-.012-.69c0-.061.049-.143.024-.177-.281-.4-.14-.833-.116-1.258a.642.642,0,0,0-.754-.592,3.382,3.382,0,0,1-1.49.3c-.07-.006-.147.067-.223.1-.125.052-.256.147-.372.134A1.507,1.507,0,0,0,292.8,21c-.113.092-.311.076-.488.116-.058.177-.116.375-.186.571-.122.354-.281.656-.72.717-.116.015-.226.2-.308.321a.282.282,0,0,1-.354.15.976.976,0,0,0-.446.1c-.1.034-.2.125-.305.125a1.266,1.266,0,0,0-.931.491,1.581,1.581,0,0,1-1.581.345.81.81,0,0,1-.476-.76c.073-.5.174-1.007.269-1.508.012-.058.046-.159.076-.162.36-.046.342-.415.528-.611.049-.052.043-.168.043-.256,0-.058-.055-.156-.034-.174.284-.244,0-.44-.04-.656-.067-.375-.113-.757-.15-1.136-.006-.055.076-.147.137-.18a1.013,1.013,0,0,1,.879-.177,4.6,4.6,0,0,0,1.215.015,1.68,1.68,0,0,1,.421.131,8.138,8.138,0,0,0,1.02-.012,1.143,1.143,0,0,0,.571-.272c.165-.147.3-.22.491-.1a.9.9,0,0,0,1.218-.2,2.385,2.385,0,0,1,.571-.263.776.776,0,0,0,.278-.171,1.832,1.832,0,0,1,1.477-.812c.134,0,.269-.125.4-.128a1.745,1.745,0,0,1,.449.122,1.08,1.08,0,0,1,.812-.6,1.209,1.209,0,0,0,.51-.3,1.559,1.559,0,0,1,1.145-.379c.171-.012.272-.049.321-.223.024-.085.095-.223.143-.22.485.009.681-.479,1.078-.6a.933.933,0,0,1,.305,0,1.122,1.122,0,0,0,.174.018c.256-.024.516-.049.769-.089A2.749,2.749,0,0,0,302.494,14.11Z" transform="translate(-97.43 -9.803)"/>
    <path id="Path_298" data-name="Path 298" class="cls-1" d="M464.153,50.869l-.287-.171c-.147.528-.559.186-.852.278a1.166,1.166,0,0,0-.266.067c-.153.1-.229.1-.342-.079a.688.688,0,0,0-.531-.266,1.146,1.146,0,0,0-.739.226c-.1.049-.162.183-.25.293l-.11-.2c-.147.018-.269.031-.391.049s-.244.055-.385.085c-.165-.284-.461-.165-.717-.168a6.474,6.474,0,0,0-1,.049c-.363.055-.769.012-1.059.321-.018.021-.049.049-.073.046-.281-.012-.565-.006-.839-.046a1.914,1.914,0,0,0-1.328.314.492.492,0,0,0-.186.339c-.021.305-.391.476-.3.818.012.043-.046.116-.089.159-.308.3-.617.592-.931.882a1.184,1.184,0,0,1-.9.052c-.369-.226-.369-.226-.568-.131a1.852,1.852,0,0,1-.394-1.236c0-.082.052-.165.055-.247,0-.174-.009-.348-.015-.525a1.751,1.751,0,0,1-.006-.22c.027-.305.061-.611.092-.879.1-.214.2-.409.3-.6.037-.07.085-.134.122-.2.049-.095.143-.2.128-.284a.828.828,0,0,1,.278-.751c.049-.049.107-.162.086-.2-.119-.18-.061-.272.113-.366.351-.192.162-.534.2-.812a2.386,2.386,0,0,1,.379-1.3,1.022,1.022,0,0,1,1.129-.229,3.5,3.5,0,0,0,.864.192c.183.015.311.14.531.116a1.705,1.705,0,0,0,.809-.4,2.012,2.012,0,0,1,1.517-.507,1.646,1.646,0,0,0,1.151-.287,3.51,3.51,0,0,1,1.108-.43.352.352,0,0,0,.211-.2c.125-.394.482-.345.742-.339.192.006.385.211.562.345a2.5,2.5,0,0,1,.29.3c.119-.186.186-.314.275-.424.116-.143.153-.388.418-.354a1.172,1.172,0,0,1,.772.351,2.723,2.723,0,0,0,.424.345.51.51,0,0,1,.259.479c-.009.537.076,1.071.082,1.609a3.485,3.485,0,0,1-.15.73c-.015.067-.061.165-.034.2.272.345.171.769.183,1.139a.865.865,0,0,0,.177.5.865.865,0,0,1,.079.559,1.564,1.564,0,0,1-.232.534A4.241,4.241,0,0,1,464.153,50.869Zm-3.227-3.675c-.3-.153-.565-.287-.815-.412-.113.137-.211.253-.3.363-.342-.11-.659-.22-.968.012a.131.131,0,0,1-.11.015c-.4-.244-.766.156-1.163.067-.034-.006-.11.107-.14.177s0,.156-.043.208c-.29.4-.589.785-.888,1.175-.018-.027-.034-.055-.052-.082-.092.015-.247.009-.263.049a2.014,2.014,0,0,0-.113.586c0,.067.119.192.189.2.354.031.708.034,1.065.037.04,0,.086-.046.119-.079a1.531,1.531,0,0,1,1.062-.29,7.865,7.865,0,0,1,1.163.064c.027,0,.052-.027.079-.037.131-.037.263-.07.394-.1.027.024.055.052.079.076.012-.134.015-.269.034-.4.012-.092.018-.214.076-.269A2.491,2.491,0,0,0,460.926,47.194Z" transform="translate(-211.796 -30.527)"/>
    <path id="Path_299" data-name="Path 299" class="cls-1" d="M462.246.531a6.707,6.707,0,0,0,.925.031,8.407,8.407,0,0,0,1.2-.217A1.784,1.784,0,0,0,464.8.088a1.132,1.132,0,0,1,.14-.058,1.194,1.194,0,0,1,.977.241c.055.058.15.131.211.119a1.089,1.089,0,0,1,1.123.723c.247.482.687.479,1.023.717a1.839,1.839,0,0,1,.3.375c.095.119.2.235.333.4-.128.256-.1.687-.568.8-.058.015-.092.107-.146.156a.5.5,0,0,1-.632.125.358.358,0,0,0-.171-.058,4.945,4.945,0,0,1-.8-.021.938.938,0,0,1-.476-.29c-.333-.363-.675-.11-1.026-.073a2.6,2.6,0,0,1-.791.119,4.467,4.467,0,0,0-1.172.18,10.014,10.014,0,0,1-1.09.085,1.166,1.166,0,0,0-1.084.467.916.916,0,0,1-.757.223.547.547,0,0,0-.461.107c-.049.034-.125.1-.15.085-.479-.278-.943.192-1.432.012a1.209,1.209,0,0,1-.76-.812,1.829,1.829,0,0,1-.027-.476c-.037-.046-.159-.131-.153-.208a1.041,1.041,0,0,1,.14-.464c.2-.348.47-.662.647-1.023.082-.171.049-.259.311-.223.2.027.433-.2.659-.305a2.026,2.026,0,0,1,.382-.11,1.264,1.264,0,0,0,.272-.043A4.688,4.688,0,0,1,460.928.6.455.455,0,0,1,461.1.61c.018,0,.037.034.052.031.372-.049.742-.1,1.114-.153C462.255.507,462.249.519,462.246.531Z" transform="translate(-215.686 0)"/>
    <path id="Path_300" data-name="Path 300" class="cls-1" d="M494.97,106.064h-2.442l-.018-.092a2.394,2.394,0,0,1,.287-.089c.485-.089.571-.183.574-.687q0-1.648,0-3.3c0-.2.006-.4-.006-.6-.015-.293-.122-.507-.464-.51a1.429,1.429,0,0,1-.311-.07c0-.027,0-.055-.006-.082.055-.027.11-.082.165-.082,1.074.006,2.155-.055,3.22.049a1.281,1.281,0,0,1,1.23,1.517,1.416,1.416,0,0,1-.818,1.044c-.125.07-.253.134-.43.226.339.455.656.894.989,1.319.18.229.382.443.58.659a1.432,1.432,0,0,0,1.737.482.494.494,0,0,0,.339-.5c.009-.72.009-1.444.012-2.164q0-.847,0-1.694c0-.6-.04-.641-.607-.785-.058-.015-.1-.073-.156-.11.055-.031.113-.089.168-.089,1.371-.006,2.738,0,4.161,0,.046.382.092.745.134,1.111l-.1.064c-.067-.07-.171-.131-.2-.214a.906.906,0,0,0-.922-.659l-1.38-.037c-.2-.006-.308.073-.305.3q.014.847,0,1.694c0,.2.061.293.266.29.418-.009.836-.012,1.255-.021a.4.4,0,0,0,.43-.369.6.6,0,0,1,.058-.211c.031-.052.1-.079.15-.116.034.055.1.107.1.162.009.47.009.937,0,1.407,0,.058-.064.113-.1.168a.69.69,0,0,1-.156-.122.48.48,0,0,1-.055-.177.465.465,0,0,0-.476-.412c-.418-.012-.836-.021-1.255,0a.312.312,0,0,0-.2.232c-.018.513-.024,1.026,0,1.538.024.491.186.647.681.675.458.024.919.006,1.377.015a1.092,1.092,0,0,0,.983-.568,2.1,2.1,0,0,1,.192-.284.224.224,0,0,1,.18-.067.188.188,0,0,1,.07.171c-.107.314-.22.632-.357.934-.027.061-.165.1-.253.1-1.4.006-2.8,0-4.206.009-.333,0-.662.064-1,.07a2.019,2.019,0,0,1-1.645-.836c-.36-.446-.7-.916-1.044-1.374a.959.959,0,0,0-1.081-.369.255.255,0,0,0-.14.2q-.009.815.009,1.63a.422.422,0,0,0,.406.437c.134.021.266.064.4.1A.631.631,0,0,1,494.97,106.064Zm-.8-4.014h0v.409c0,.937,0,.937.946.864a1.16,1.16,0,0,0,1.2-.907,1.273,1.273,0,0,0-1.02-1.6,5.1,5.1,0,0,0-.809-.055c-.217-.009-.327.085-.318.321C494.183,101.4,494.174,101.726,494.174,102.05Z" transform="translate(-240.211 -69.827)"/>
    <path id="Path_301" data-name="Path 301" class="cls-1" d="M186.938,101.712q-1.177,2.088-2.357,4.173a1.747,1.747,0,0,1-.2.25,2.291,2.291,0,0,1-.189-.263q-.838-1.575-1.67-3.159a8.9,8.9,0,0,0-.6-1.047c-.04.574-.089,1.148-.119,1.725s-.043,1.169-.049,1.755.055.647.638.73a1.462,1.462,0,0,1,.223.073c-.006.027-.012.058-.018.085h-2.149c-.006-.031-.012-.064-.015-.095a2.55,2.55,0,0,1,.354-.1.472.472,0,0,0,.464-.464c.079-.852.162-1.706.232-2.561.037-.479.058-.959.067-1.441.012-.507-.064-.586-.568-.684-.079-.015-.159-.034-.333-.07.122-.079.174-.143.229-.143.479-.009.958,0,1.4,0a37.274,37.274,0,0,0,2.357,4.554c.855-1.557,1.774-2.967,2.476-4.551.433,0,.913,0,1.392,0,.055,0,.107.061.162.092-.046.034-.085.082-.137.095-.788.2-.791.2-.769,1.026.034,1.169.067,2.341.11,3.51.021.556.055.577.614.665a1.3,1.3,0,0,1,.2.064,6.269,6.269,0,0,1-2.439.037,1.129,1.129,0,0,1,.244-.1c.522-.095.565-.134.562-.669-.006-1.065-.015-2.134-.027-3.2a2.642,2.642,0,0,0-.024-.272A.416.416,0,0,1,186.938,101.712Z" transform="translate(-23.395 -69.804)"/>
    <path id="Path_302" data-name="Path 302" class="cls-1" d="M294.925,106.2H292.51c-.009-.031-.018-.061-.031-.092a1.837,1.837,0,0,1,.29-.1c.479-.089.571-.168.574-.65q.014-1.914,0-3.828c0-.47-.076-.534-.525-.614a2.644,2.644,0,0,1-.256-.067c0-.027-.009-.055-.012-.082a.657.657,0,0,1,.217-.082c1.032,0,2.067.006,3.1.027a1.327,1.327,0,0,1,.507.15,1.243,1.243,0,0,1,.821,1.09,1.38,1.38,0,0,1-.757,1.31c-.14.089-.293.153-.513.266.412.54.791,1.071,1.209,1.572a2.927,2.927,0,0,0,1.554,1.145.912.912,0,0,1-.171.052,2.169,2.169,0,0,1-2.085-.821c-.369-.467-.72-.949-1.084-1.422a.994.994,0,0,0-1.068-.324.268.268,0,0,0-.128.211c0,.522.009,1.044.018,1.566a.451.451,0,0,0,.458.491,1.567,1.567,0,0,1,.339.11A.933.933,0,0,0,294.925,106.2Zm-.785-4.032h0c0,.137,0,.272,0,.409,0,.937,0,.94.949.867a1.185,1.185,0,0,0,1.136-.693,1.283,1.283,0,0,0-.913-1.8,5.146,5.146,0,0,0-.87-.064c-.211-.009-.3.107-.3.311C294.144,101.516,294.141,101.84,294.141,102.167Z" transform="translate(-101.241 -69.947)"/>
    <path id="Path_303" data-name="Path 303" class="cls-1" d="M341.421,100.1a3.439,3.439,0,0,1,2.564.968,2.783,2.783,0,0,1-.583,4.3,3.864,3.864,0,0,1-4,.082,2.546,2.546,0,0,1-1.45-2.39,2.736,2.736,0,0,1,1.462-2.463A3.8,3.8,0,0,1,341.421,100.1Zm-2.521,2.8a3.149,3.149,0,0,0,.6,1.832,2.389,2.389,0,0,0,2.534.9,2.049,2.049,0,0,0,1.67-1.7,3.52,3.52,0,0,0-.107-1.822,2.412,2.412,0,0,0-2.68-1.725A2.285,2.285,0,0,0,338.9,102.9Z" transform="translate(-132.831 -69.544)"/>
    <path id="Path_304" data-name="Path 304" class="cls-1" d="M221.483,101.59a1.7,1.7,0,0,0-.049.269c.015,1.117.018,2.238.058,3.355.018.559.089.6.647.681a2.2,2.2,0,0,1,.3.085c-.006.031-.012.064-.018.095H220.2c-.009-.027-.018-.052-.027-.079a1.637,1.637,0,0,1,.256-.1c.482-.092.553-.143.562-.626q.041-1.9.043-3.794c0-.44-.186-.629-.629-.727a2.032,2.032,0,0,1-.244-.049.671.671,0,0,1-.134-.1c.043-.034.089-.092.131-.095.449,0,.9,0,1.349.009a.3.3,0,0,1,.174.1c.852.888,1.7,1.789,2.555,2.671.495.507,1.013.992,1.557,1.52a1.094,1.094,0,0,0,.073-.263c-.024-1.074-.031-2.152-.089-3.227-.027-.482-.089-.495-.574-.58a1.291,1.291,0,0,1-.217-.04c-.04-.015-.07-.061-.1-.092.043-.034.082-.1.125-.1.681,0,1.358,0,2.039.009.027,0,.058.024.079.119-.085.031-.168.073-.253.095-.5.116-.519.113-.568.626-.043.458-.04.919-.043,1.377,0,1.065.006,2.134,0,3.2a.179.179,0,1,1-.314.125q-2.147-2.157-4.292-4.316C221.614,101.694,221.565,101.66,221.483,101.59Z" transform="translate(-50.907 -69.825)"/>
    <path id="Path_305" data-name="Path 305" class="cls-1" d="M409.65,100.636a5.439,5.439,0,0,1,2.518.015c-.131.015-.238.031-.342.04-.3.031-.495.183-.495.5.006,1.023-.034,2.051.055,3.068a1.638,1.638,0,0,0,1.828,1.584,1.685,1.685,0,0,0,1.92-1.526,29.666,29.666,0,0,0,0-3.126c-.006-.324-.226-.473-.537-.5-.1-.009-.2-.015-.3-.024-.009-.027-.015-.055-.024-.085.064-.031.125-.089.189-.092q.925-.009,1.85,0a.5.5,0,0,1,.18.073c-.058.04-.113.1-.177.113-.54.085-.638.171-.656.72-.031.855-.021,1.716-.064,2.57a2.134,2.134,0,0,1-2.311,2.228,5.366,5.366,0,0,1-1.27-.122,1.717,1.717,0,0,1-1.426-1.651c-.058-.748-.04-1.5-.055-2.256-.006-.272,0-.543-.012-.815-.021-.537-.1-.614-.647-.669A1.448,1.448,0,0,1,409.65,100.636Z" transform="translate(-182.644 -69.812)"/>
    <path id="Path_306" data-name="Path 306" class="cls-1" d="M475.269,100.6a1.5,1.5,0,0,1-.247.07c-.449.058-.562.137-.583.577-.04.76-.04,1.526-.061,2.286a4.87,4.87,0,0,1-.034.562,2.126,2.126,0,0,1-2.357,2.079,4.849,4.849,0,0,1-1.59-.256,1.744,1.744,0,0,1-1.09-1.78c-.027-.794-.009-1.59-.012-2.384,0-.116,0-.229-.006-.345-.037-.62-.092-.678-.714-.748a2.056,2.056,0,0,1-.235-.07c.131-.067.192-.125.25-.125.72-.006,1.444,0,2.164,0a.575.575,0,0,1,.174.064c0,.031,0,.058,0,.089-.1.015-.2.037-.3.049-.388.046-.519.15-.522.528-.012.992-.04,1.987.024,2.976a1.67,1.67,0,0,0,1.78,1.648,1.736,1.736,0,0,0,2.018-1.642,22.035,22.035,0,0,0-.021-2.909c-.024-.488-.137-.543-.629-.611-.07-.009-.134-.076-.2-.116a.7.7,0,0,1,.211-.067c.607-.006,1.212-.006,1.819-.006a.824.824,0,0,1,.147.027C475.254,100.53,475.26,100.563,475.269,100.6Z" transform="translate(-223.419 -69.794)"/>
    <path id="Path_307" data-name="Path 307" class="cls-1" d="M393.859,100.364c.049.418.095.821.153,1.313-.137-.079-.256-.1-.278-.165a1.666,1.666,0,0,0-1.618-1.123,2.761,2.761,0,0,0-2.528.882,2.664,2.664,0,0,0-.363,2.753,2.451,2.451,0,0,0,2.067,1.612,4.077,4.077,0,0,0,1.056.015,1.918,1.918,0,0,0,1.487-.98c.052-.085.174-.128.266-.189a1.1,1.1,0,0,1,.021.281,1.188,1.188,0,0,1-1.136,1.1,5.888,5.888,0,0,1-3.169-.281,2.613,2.613,0,0,1-1.749-2.451,2.653,2.653,0,0,1,1.6-2.524,5.5,5.5,0,0,1,3.428-.388C393.347,100.251,393.6,100.312,393.859,100.364Z" transform="translate(-167.65 -69.555)"/>
    <path id="Path_308" data-name="Path 308" class="cls-1" d="M366.78,104.174c-.058-.085-.153-.162-.174-.253a.559.559,0,0,0-.62-.491c-.4,0-.794-.009-1.19-.015-.18,0-.278.085-.275.263.009.607.018,1.212.043,1.816a.369.369,0,0,0,.369.36c.18.024.363.049.543.07.021.04.043.079.064.116a.582.582,0,0,1-.165.055c-.83,0-1.661-.009-2.491-.012-.006-.043-.009-.085-.015-.128a1.957,1.957,0,0,1,.363-.085.464.464,0,0,0,.488-.5c.009-.125.021-.25.021-.375,0-1.129,0-2.259,0-3.388,0-.064,0-.125,0-.189-.024-.531-.073-.583-.592-.714a.645.645,0,0,1-.159-.1c.052-.034.107-.1.159-.1,1.349-.006,2.7,0,4.072,0v1.114l-.058.055c-.058-.064-.15-.119-.168-.192a.859.859,0,0,0-.867-.678c-.44-.018-.876-.024-1.316-.034a.248.248,0,0,0-.29.281c0,.607-.006,1.212-.006,1.819,0,.2.1.275.3.269.406-.015.815-.031,1.221-.024a.49.49,0,0,0,.568-.449c.018-.095.134-.168.2-.25a1.212,1.212,0,0,1,.073.3c.009.467,0,.937,0,1.407Z" transform="translate(-150.144 -69.82)"/>
    <path id="Path_309" data-name="Path 309" class="cls-1" d="M311.781,105.943c.168-.027.336-.058.5-.085a.4.4,0,0,0,.385-.382,3.288,3.288,0,0,0-.4-2.378c-.394-.565-.711-1.181-1.059-1.777a1,1,0,0,0-.818-.6c-.067,0-.128-.076-.192-.116a.7.7,0,0,1,.217-.095c.607-.006,1.212-.006,1.819,0a.668.668,0,0,1,.208.07,1.242,1.242,0,0,1-.2.134c-.113.046-.232.07-.424.128.485.864.946,1.688,1.441,2.567.174-.256.311-.446.433-.647.339-.553.668-1.108,1.013-1.658.147-.235.085-.336-.174-.372a2.178,2.178,0,0,1-.333-.1l.027-.082h1.92l.009.073c-.049.027-.1.076-.147.079a1.285,1.285,0,0,0-.974.662c-.443.659-.882,1.322-1.313,1.987a3.068,3.068,0,0,0-.232,1.74,2.375,2.375,0,0,0,.021.25c.037.391.122.47.519.534a2.847,2.847,0,0,1,.43.143,2.948,2.948,0,0,1-.455.076c-.647.009-1.3.006-1.944,0a1.359,1.359,0,0,1-.287-.055C311.778,106.01,311.778,105.977,311.781,105.943Z" transform="translate(-113.552 -69.826)"/>
    <path id="Path_310" data-name="Path 310" class="cls-1" d="M275.052,105.458a1.292,1.292,0,0,1-.238.04q-1.131,0-2.259,0a.722.722,0,0,1-.211-.073,1.225,1.225,0,0,1,.214-.119,1.068,1.068,0,0,1,.278-.037.454.454,0,0,0,.473-.51c.009-.513.012-1.026.015-1.538,0-.9-.006-1.8.006-2.7,0-.278-.1-.379-.366-.36-.363.024-.73.037-1.1.052a1.046,1.046,0,0,0-.885.559,1.431,1.431,0,0,1-.238.232c-.031-.024-.064-.046-.095-.07.119-.424.241-.849.366-1.291.07.024.125.04.177.061a1.538,1.538,0,0,0,.495.2c1.5.015,2.991.018,4.487,0a2.323,2.323,0,0,0,.632-.211c-.046.43-.095.873-.143,1.316-.021.018-.046.034-.067.052-.055-.067-.147-.128-.156-.2a.727.727,0,0,0-.766-.641c-.418-.027-.836-.037-1.252-.058-.256-.012-.308.122-.305.351.009,1.328,0,2.659,0,3.987,0,.632.073.714.693.8a2.056,2.056,0,0,1,.229.052C275.046,105.385,275.049,105.422,275.052,105.458Z" transform="translate(-86.075 -69.225)"/>
    <path id="Path_311" data-name="Path 311" class="cls-1" d="M257.9,105.993c-.372-.079-.769-.159-1.163-.244a.428.428,0,0,1-.366-.375c-.04-.235-.1-.47-.134-.705a.675.675,0,0,1,.082-.259c.061.058.147.107.177.177a1.677,1.677,0,0,0,1.377,1.093,1.608,1.608,0,0,0,.437,0,1.017,1.017,0,0,0,.974-.748,1.064,1.064,0,0,0-.473-1.2c-.369-.253-.781-.446-1.151-.7a3.48,3.48,0,0,1-.788-.653,1.3,1.3,0,0,1,.586-2.079,3.549,3.549,0,0,1,2.216-.043.258.258,0,0,1,.15.168,6.11,6.11,0,0,1,.116.708c.006.061-.058.131-.089.2-.061-.04-.15-.067-.183-.125a1.358,1.358,0,0,0-1.719-.8.873.873,0,0,0-.467,1.468,2.63,2.63,0,0,0,.589.458c.382.235.788.433,1.163.675a1.594,1.594,0,0,1,.781,1.123,1.445,1.445,0,0,1-1.1,1.667A8.453,8.453,0,0,1,257.9,105.993Z" transform="translate(-76.061 -69.549)"/>
    <path id="Path_312" data-name="Path 312" class="cls-1" d="M451.4,105.537h-2.65l-.037-.064c.067-.04.131-.107.2-.11.653-.034.794-.043.8-.965.006-1.267,0-2.531.009-3.8,0-.284-.089-.406-.375-.385-.333.024-.669.031-1,.04a1.118,1.118,0,0,0-1.01.629c-.043.076-.159.113-.238.171-.018-.024-.04-.049-.058-.073.107-.379.211-.76.317-1.139.046-.165.113-.147.244-.064a1.028,1.028,0,0,0,.507.186c1.474.015,2.952.018,4.426,0a2.471,2.471,0,0,0,.668-.208c-.04.394-.079.806-.128,1.215-.006.043-.07.11-.107.11s-.125-.058-.128-.095c-.049-.623-.5-.7-.983-.736-.354-.024-.711-.021-1.065-.027-.192,0-.281.076-.281.281.006,1.392-.006,2.784.006,4.176,0,.519.1.6.623.669a2.16,2.16,0,0,1,.305.085A.269.269,0,0,0,451.4,105.537Z" transform="translate(-208.614 -69.279)"/>
    <path id="Path_313" data-name="Path 313" class="cls-1" d="M433.257,100.526a.705.705,0,0,1,.2-.089,6.207,6.207,0,0,1,2.372.162c-.089.015-.165.034-.244.043-.507.067-.611.143-.617.644q-.027,1.836,0,3.669c.009.577.177.745.757.781a9.027,9.027,0,0,0,1.407-.018.992.992,0,0,0,.525-.29,4.1,4.1,0,0,0,.351-.513c.04-.052.131-.064.2-.095.018.061.067.131.052.183-.092.3-.189.6-.3.888a.272.272,0,0,1-.2.143q-2.193.009-4.39,0a.839.839,0,0,1-.18-.076,2.243,2.243,0,0,1,.327-.125c.6-.095.641-.11.647-.73.012-1.255.009-2.506,0-3.761,0-.562-.089-.632-.65-.7-.076-.009-.156-.024-.232-.037A.492.492,0,0,1,433.257,100.526Z" transform="translate(-198.999 -69.762)"/>
    <path id="Path_314" data-name="Path 314" class="cls-1" d="M212.3,106.077h-2.476c-.009-.027-.018-.055-.027-.085a1.41,1.41,0,0,1,.256-.1c.537-.1.614-.156.62-.714q.023-1.882,0-3.767c-.009-.559-.1-.623-.659-.711a.287.287,0,0,1-.2-.134c.839-.049,1.67-.04,2.5-.061,0,.055,0,.113.006.168-.116.018-.232.034-.345.052-.372.061-.485.162-.488.528-.009,1.371,0,2.738,0,4.109a.453.453,0,0,0,.47.51,2.051,2.051,0,0,1,.375.095C212.321,106,212.312,106.037,212.3,106.077Z" transform="translate(-43.799 -69.822)"/>
    <path id="Path_315" data-name="Path 315" class="cls-1" d="M247.864,106.079H245.4c-.009-.027-.021-.058-.031-.085a1.333,1.333,0,0,1,.244-.11c.553-.11.6-.116.611-.681.024-1.285.018-2.573-.006-3.858-.009-.525-.1-.577-.607-.65a.913.913,0,0,1-.223-.1.765.765,0,0,1,.223-.092c.681-.006,1.358-.006,2.039,0a1.032,1.032,0,0,1,.244.064l-.009.092c-.147.024-.293.055-.44.073a.416.416,0,0,0-.394.415c-.009.113-.027.229-.027.342,0,1.233-.009,2.47.006,3.7.006.534.085.6.6.69a1.409,1.409,0,0,1,.259.1C247.885,106.011,247.873,106.045,247.864,106.079Z" transform="translate(-68.512 -69.817)"/>
  </g>
</svg>
