<svg xmlns="http://www.w3.org/2000/svg" xmlns:xlink="http://www.w3.org/1999/xlink" width="61.762" height="78.614" viewBox="0 0 61.762 78.614">
  <defs>
    <style>
      .cls-1 {
        fill: red;
      }

      .cls-2 {
        fill: none;
      }

      .cls-3 {
        filter: url(#Path_232);
      }
    </style>
    <filter id="Path_232" x="3.867" y="0" width="54.027" height="69.468" filterUnits="userSpaceOnUse">
      <feOffset dy="3" input="SourceAlpha"/>
      <feGaussianBlur stdDeviation="3" result="blur"/>
      <feFlood flood-opacity="0.549"/>
      <feComposite operator="in" in2="blur"/>
      <feComposite in="SourceGraphic"/>
    </filter>
  </defs>
  <g id="checked_dis" transform="translate(0 16.853)">
    <g class="cls-3" transform="matrix(1, 0, 0, 1, 0, -16.85)">
      <path id="Path_232-2" data-name="Path 232" class="cls-1" d="M23.014,2A18,18,0,0,0,5,20.014c0,13.51,18.014,33.454,18.014,33.454S41.027,33.524,41.027,20.014A18,18,0,0,0,23.014,2Zm0,24.447a6.433,6.433,0,1,1,6.433-6.433A6.436,6.436,0,0,1,23.014,26.447Z" transform="translate(7.87 4)"/>
    </g>
    <path id="Path_233" data-name="Path 233" class="cls-2" d="M0,0H61.761V61.761H0Z"/>
  </g>
</svg>
