<svg xmlns="http://www.w3.org/2000/svg" width="26.979" height="26.979" viewBox="0 0 26.979 26.979">
  <defs>
    <style>
      .cls-1 {
        fill: none;
      }

      .cls-2 {
        fill: #2680eb;
      }
    </style>
  </defs>
  <g id="setting" transform="translate(0 0)">
    <path id="Path_138" data-name="Path 138" class="cls-1" d="M0,0H26.979V26.979H0Z"/>
    <path id="Path_139" data-name="Path 139" class="cls-2" d="M31.493,25.114a7.869,7.869,0,0,0,.081-.992,5.321,5.321,0,0,0-.081-.992l2.146-1.68a.526.526,0,0,0,.121-.648l-2.024-3.5a.513.513,0,0,0-.628-.223L28.6,18.089a6.925,6.925,0,0,0-1.721-.992l-.385-2.672A.483.483,0,0,0,26.007,14H21.958a.52.52,0,0,0-.506.425L21.067,17.1a8.087,8.087,0,0,0-1.721.992l-2.51-1.012a.53.53,0,0,0-.628.223l-2.024,3.5a.5.5,0,0,0,.121.648l2.146,1.68a8.131,8.131,0,0,0,0,1.984l-2.146,1.68a.526.526,0,0,0-.121.648l2.024,3.5a.513.513,0,0,0,.628.223l2.51-1.012a6.925,6.925,0,0,0,1.721.992l.385,2.672a.5.5,0,0,0,.506.425h4.049a.52.52,0,0,0,.506-.425l.385-2.672a7.482,7.482,0,0,0,1.7-.992l2.53,1.012a.53.53,0,0,0,.628-.223l2.024-3.5a.526.526,0,0,0-.121-.648Zm-7.51,2.045a3.036,3.036,0,1,1,3.036-3.037A3.032,3.032,0,0,1,23.982,27.158Z" transform="translate(-10.503 -10.632)"/>
  </g>
</svg>
