<svg id="setting" xmlns="http://www.w3.org/2000/svg" width="24" height="24" viewBox="0 0 24 24">
  <defs>
    <style>
      .cls-1 {
        fill: none;
      }

      .cls-2 {
        fill: #05365d;
      }
    </style>
  </defs>
  <path id="Path_290" data-name="Path 290" class="cls-1" d="M0,0H24V24H0Z"/>
  <path id="Path_291" data-name="Path 291" class="cls-2" d="M31.085,24.853a7.682,7.682,0,0,0,.079-.969,5.2,5.2,0,0,0-.079-.969l2.1-1.641a.513.513,0,0,0,.119-.633l-1.977-3.42A.5.5,0,0,0,30.709,17l-2.451.988a6.763,6.763,0,0,0-1.68-.969L26.2,14.415A.472.472,0,0,0,25.728,14H21.774a.508.508,0,0,0-.494.415L20.9,17.025a7.9,7.9,0,0,0-1.68.969L16.773,17a.518.518,0,0,0-.613.217l-1.977,3.42a.489.489,0,0,0,.119.633l2.1,1.641a7.94,7.94,0,0,0,0,1.937l-2.1,1.641a.513.513,0,0,0-.119.633l1.977,3.42a.5.5,0,0,0,.613.217l2.451-.988a6.763,6.763,0,0,0,1.68.969l.376,2.609a.492.492,0,0,0,.494.415h3.954a.508.508,0,0,0,.494-.415l.376-2.609a7.307,7.307,0,0,0,1.661-.969l2.471.988a.518.518,0,0,0,.613-.217l1.977-3.42a.513.513,0,0,0-.119-.633Zm-7.334,2a2.965,2.965,0,1,1,2.965-2.965A2.961,2.961,0,0,1,23.751,26.849Z" transform="translate(-11.759 -11.884)"/>
</svg>
