<svg xmlns="http://www.w3.org/2000/svg" width="27.982" height="27.042" viewBox="0 0 27.982 27.042">
  <defs>
    <style>
      .cls-1 {
        fill: #707070;
      }
    </style>
  </defs>
  <g id="flood" transform="translate(0.001 0)">
    <path id="Path_155" data-name="Path 155" class="cls-1" d="M64.5,313.018a10.59,10.59,0,0,0-2.612-2.355.545.545,0,0,0-.546-.049.532.532,0,0,0-.311.454,10.637,10.637,0,0,0,.137,3.513,1.845,1.845,0,0,0,1.672,1.06,1.785,1.785,0,0,0,.776-.175,1.831,1.831,0,0,0,.951-1.038A1.853,1.853,0,0,0,64.5,313.018Z" transform="translate(-57.619 -294.063)"/>
    <path id="Path_156" data-name="Path 156" class="cls-1" d="M82.443,341.5a.726.726,0,0,1-.382.421.745.745,0,0,1-.989-.361,7.11,7.11,0,0,1-.1-1.962,7.073,7.073,0,0,1,1.443,1.333h0A.71.71,0,0,1,82.443,341.5Z" transform="translate(-76.537 -321.514)"/>
    <path id="Path_157" data-name="Path 157" class="cls-1" d="M186.7,313.018a10.688,10.688,0,0,0-2.612-2.355.545.545,0,0,0-.546-.049.532.532,0,0,0-.311.454,10.636,10.636,0,0,0,.137,3.513,1.849,1.849,0,0,0,1.038.951,1.792,1.792,0,0,0,.628.109,1.872,1.872,0,0,0,.781-.175,1.831,1.831,0,0,0,.951-1.038A1.854,1.854,0,0,0,186.7,313.018Z" transform="translate(-173.142 -294.063)"/>
    <path id="Path_158" data-name="Path 158" class="cls-1" d="M204.743,341.6a.725.725,0,0,1-.382.421.759.759,0,0,1-.568.027.726.726,0,0,1-.421-.383,7.109,7.109,0,0,1-.1-1.962,7.072,7.072,0,0,1,1.443,1.333h0A.719.719,0,0,1,204.743,341.6Z" transform="translate(-192.154 -321.608)"/>
    <path id="Path_159" data-name="Path 159" class="cls-1" d="M308.9,313.018a10.589,10.589,0,0,0-2.612-2.355.544.544,0,0,0-.858.4,10.636,10.636,0,0,0,.137,3.513,1.845,1.845,0,0,0,1.672,1.06,1.785,1.785,0,0,0,.776-.175,1.836,1.836,0,0,0,.885-2.448Z" transform="translate(-288.665 -294.063)"/>
    <path id="Path_160" data-name="Path 160" class="cls-1" d="M326.943,341.5a.726.726,0,0,1-.382.421.745.745,0,0,1-.989-.361,7.109,7.109,0,0,1-.1-1.962,7.073,7.073,0,0,1,1.443,1.333h0A.71.71,0,0,1,326.943,341.5Z" transform="translate(-307.677 -321.514)"/>
    <path id="Path_161" data-name="Path 161" class="cls-1" d="M431.2,313.018a10.59,10.59,0,0,0-2.612-2.355.545.545,0,0,0-.546-.049.532.532,0,0,0-.311.454,10.638,10.638,0,0,0,.137,3.513,1.845,1.845,0,0,0,1.672,1.06,1.784,1.784,0,0,0,.776-.175,1.831,1.831,0,0,0,.951-1.038A1.854,1.854,0,0,0,431.2,313.018Z" transform="translate(-404.282 -294.063)"/>
    <path id="Path_162" data-name="Path 162" class="cls-1" d="M449.143,341.5a.726.726,0,0,1-.383.421.745.745,0,0,1-.989-.361,7.11,7.11,0,0,1-.1-1.962,7.072,7.072,0,0,1,1.443,1.333h0A.71.71,0,0,1,449.143,341.5Z" transform="translate(-423.199 -321.514)"/>
    <path id="Path_163" data-name="Path 163" class="cls-1" d="M132.6,413.018h0a10.688,10.688,0,0,0-2.612-2.355.544.544,0,0,0-.858.4,10.637,10.637,0,0,0,.137,3.513,1.831,1.831,0,0,0,1.038.951,1.77,1.77,0,0,0,.628.109,1.871,1.871,0,0,0,.781-.175A1.843,1.843,0,0,0,132.6,413.018Z" transform="translate(-121.998 -388.599)"/>
    <path id="Path_164" data-name="Path 164" class="cls-1" d="M150.261,442.017a.759.759,0,0,1-.568.027.725.725,0,0,1-.421-.382,7.109,7.109,0,0,1-.1-1.962,6.916,6.916,0,0,1,1.443,1.333A.738.738,0,0,1,150.261,442.017Z" transform="translate(-141.01 -416.144)"/>
    <path id="Path_165" data-name="Path 165" class="cls-1" d="M254.9,413.018h0a10.59,10.59,0,0,0-2.612-2.355.545.545,0,0,0-.546-.049.553.553,0,0,0-.311.454,10.637,10.637,0,0,0,.137,3.513,1.845,1.845,0,0,0,1.672,1.06,1.784,1.784,0,0,0,.776-.175A1.843,1.843,0,0,0,254.9,413.018Z" transform="translate(-237.615 -388.599)"/>
    <path id="Path_166" data-name="Path 166" class="cls-1" d="M272.461,441.922a.745.745,0,0,1-.989-.361,7.11,7.11,0,0,1-.1-1.962,7.266,7.266,0,0,1,1.443,1.328A.743.743,0,0,1,272.461,441.922Z" transform="translate(-256.533 -416.049)"/>
    <path id="Path_167" data-name="Path 167" class="cls-1" d="M377.1,413.018h0a10.688,10.688,0,0,0-2.612-2.355.545.545,0,0,0-.546-.049.532.532,0,0,0-.311.454,10.637,10.637,0,0,0,.137,3.513,1.831,1.831,0,0,0,1.038.951,1.771,1.771,0,0,0,.628.109,1.871,1.871,0,0,0,.781-.175A1.843,1.843,0,0,0,377.1,413.018Z" transform="translate(-353.138 -388.599)"/>
    <path id="Path_168" data-name="Path 168" class="cls-1" d="M394.761,442.017a.759.759,0,0,1-.568.027.726.726,0,0,1-.421-.382,7.11,7.11,0,0,1-.1-1.962,7.32,7.32,0,0,1,1.448,1.333A.745.745,0,0,1,394.761,442.017Z" transform="translate(-372.15 -416.144)"/>
    <g id="Group_123" data-name="Group 123" transform="translate(0 0)">
      <g id="Group_122" data-name="Group 122">
        <path id="Path_169" data-name="Path 169" class="cls-1" d="M24.365,15.605a7.623,7.623,0,0,0-13.737-3.9,6.145,6.145,0,0,0-5.005,1.115,6.185,6.185,0,0,0-2.06,2.8,4.129,4.129,0,0,0,.574,8.218H23.846a4.133,4.133,0,0,0,.519-8.234Z" transform="translate(0 -8.6)"/>
      </g>
    </g>
    <g id="Group_125" data-name="Group 125" transform="translate(5.196 11.835)">
      <g id="Group_124" data-name="Group 124">
        <path id="Path_170" data-name="Path 170" class="cls-1" d="M100.346,225.2h-4.7a.546.546,0,0,0,0,1.093h4.7a.546.546,0,1,0,0-1.093Z" transform="translate(-95.1 -225.2)"/>
      </g>
    </g>
    <g id="Group_127" data-name="Group 127" transform="translate(11.645 11.835)">
      <g id="Group_126" data-name="Group 126">
        <path id="Path_171" data-name="Path 171" class="cls-1" d="M213.654,225.2a.55.55,0,0,0,0,1.1A.55.55,0,0,0,213.654,225.2Z" transform="translate(-213.125 -225.2)"/>
      </g>
    </g>
  </g>
</svg>
